REM DIRINDEX 1\2\4\8,1\2\4\9,1\2\4\10,1\2\5\11,1\2\5\12,1\2\5\13,1\2\5\14,1\2\5\15,1\3\6\16,1\3\6\17,1\3\6\18,1\3\7\19,1\3\7\20,1\3\7\21,1\3\7\22,1\3\7\23
REM DIRNAME "folder01","folder02","folder03","folder04","folder05","folder06","folder07","folder08","folder09","folder10","folder11","folder12","folder13","folder14","folder15","folder16","folder17","folder18","folder19","folder20","folder21","folder22","folder23"
TITLE ""
FILE "LR_black_phrase_08.mp3" MP3
  TRACK 01 AUDIO
    TITLE "0:"
    INDEX 01 00:00:00
  TRACK 02 AUDIO
    TITLE "11:cjc171_06501"
    INDEX 01 00:00:14
  TRACK 03 AUDIO
    TITLE "0:"
    INDEX 01 00:01:33
  TRACK 04 AUDIO
    TITLE "12:cjc171_06502"
    INDEX 01 00:01:74
  TRACK 05 AUDIO
    TITLE "0:"
    INDEX 01 00:04:43
  TRACK 06 AUDIO
    TITLE "13:cjc171_06503"
    INDEX 01 00:05:41
  TRACK 07 AUDIO
    TITLE "0:"
    INDEX 01 00:07:12
  TRACK 08 AUDIO
    TITLE "14:cjc171_06504"
    INDEX 01 00:07:50
  TRACK 09 AUDIO
    TITLE "0:"
    INDEX 01 00:09:62
  TRACK 10 AUDIO
    TITLE "15:cjc171_06505"
    INDEX 01 00:10:17
  TRACK 11 AUDIO
    TITLE "0:"
    INDEX 01 00:12:31
  TRACK 12 AUDIO
    TITLE "11:cjc171_06506"
    INDEX 01 00:13:34
  TRACK 13 AUDIO
    TITLE "0:"
    INDEX 01 00:14:42
  TRACK 14 AUDIO
    TITLE "12:cjc171_06507"
    INDEX 01 00:15:08
  TRACK 15 AUDIO
    TITLE "0:"
    INDEX 01 00:16:35
  TRACK 16 AUDIO
    TITLE "13:cjc171_06508"
    INDEX 01 00:17:34
  TRACK 17 AUDIO
    TITLE "0:"
    INDEX 01 00:19:66
  TRACK 18 AUDIO
    TITLE "14:cjc171_06509"
    INDEX 01 00:20:35
  TRACK 19 AUDIO
    TITLE "0:"
    INDEX 01 00:22:37
  TRACK 20 AUDIO
    TITLE "15:cjc171_06510"
    INDEX 01 00:22:69
  TRACK 21 AUDIO
    TITLE "0:"
    INDEX 01 00:24:70
  TRACK 22 AUDIO
    TITLE "11:cjc171_06511"
    INDEX 01 00:25:75
  TRACK 23 AUDIO
    TITLE "0:"
    INDEX 01 00:27:21
  TRACK 24 AUDIO
    TITLE "12:cjc171_06512"
    INDEX 01 00:27:60
  TRACK 25 AUDIO
    TITLE "0:"
    INDEX 01 00:31:15
  TRACK 26 AUDIO
    TITLE "13:cjc171_06513"
    INDEX 01 00:32:16
  TRACK 27 AUDIO
    TITLE "0:"
    INDEX 01 00:34:33
  TRACK 28 AUDIO
    TITLE "14:cjc171_06514"
    INDEX 01 00:34:72
  TRACK 29 AUDIO
    TITLE "0:"
    INDEX 01 00:37:17
  TRACK 30 AUDIO
    TITLE "15:cjc171_06515"
    INDEX 01 00:37:47
  TRACK 31 AUDIO
    TITLE "0:"
    INDEX 01 00:39:67
  TRACK 32 AUDIO
    TITLE "11:cjc171_06516"
    INDEX 01 00:40:73
  TRACK 33 AUDIO
    TITLE "0:"
    INDEX 01 00:42:15
  TRACK 34 AUDIO
    TITLE "12:cjc171_06517"
    INDEX 01 00:42:52
  TRACK 35 AUDIO
    TITLE "0:"
    INDEX 01 00:44:43
  TRACK 36 AUDIO
    TITLE "13:cjc171_06518"
    INDEX 01 00:45:40
  TRACK 37 AUDIO
    TITLE "0:"
    INDEX 01 00:47:27
  TRACK 38 AUDIO
    TITLE "14:cjc171_06519"
    INDEX 01 00:47:65
  TRACK 39 AUDIO
    TITLE "0:"
    INDEX 01 00:49:62
  TRACK 40 AUDIO
    TITLE "15:cjc171_06520"
    INDEX 01 00:50:18
  TRACK 41 AUDIO
    TITLE "0:"
    INDEX 01 00:52:15
  TRACK 42 AUDIO
    TITLE "11:cjc171_06521"
    INDEX 01 00:53:20
  TRACK 43 AUDIO
    TITLE "0:"
    INDEX 01 00:54:33
  TRACK 44 AUDIO
    TITLE "12:cjc171_06522"
    INDEX 01 00:54:67
  TRACK 45 AUDIO
    TITLE "0:"
    INDEX 01 00:57:34
  TRACK 46 AUDIO
    TITLE "13:cjc171_06523"
    INDEX 01 00:58:31
  TRACK 47 AUDIO
    TITLE "0:"
    INDEX 01 01:00:71
  TRACK 48 AUDIO
    TITLE "14:cjc171_06524"
    INDEX 01 01:01:37
  TRACK 49 AUDIO
    TITLE "0:"
    INDEX 01 01:03:64
  TRACK 50 AUDIO
    TITLE "15:cjc171_06525"
    INDEX 01 01:04:20
  TRACK 51 AUDIO
    TITLE "0:"
    INDEX 01 01:06:46
  TRACK 52 AUDIO
    TITLE "11:cjc171_06526"
    INDEX 01 01:07:52
  TRACK 53 AUDIO
    TITLE "0:"
    INDEX 01 01:08:73
  TRACK 54 AUDIO
    TITLE "12:cjc171_06527"
    INDEX 01 01:09:41
  TRACK 55 AUDIO
    TITLE "0:"
    INDEX 01 01:12:18
  TRACK 56 AUDIO
    TITLE "13:cjc171_06528"
    INDEX 01 01:13:17
  TRACK 57 AUDIO
    TITLE "0:"
    INDEX 01 01:15:32
  TRACK 58 AUDIO
    TITLE "14:cjc171_06529"
    INDEX 01 01:15:69
  TRACK 59 AUDIO
    TITLE "0:"
    INDEX 01 01:18:26
  TRACK 60 AUDIO
    TITLE "15:cjc171_06530"
    INDEX 01 01:18:54
  TRACK 61 AUDIO
    TITLE "0:"
    INDEX 01 01:21:11
  TRACK 62 AUDIO
    TITLE "11:cjc171_06531"
    INDEX 01 01:22:14
  TRACK 63 AUDIO
    TITLE "0:"
    INDEX 01 01:23:37
  TRACK 64 AUDIO
    TITLE "12:cjc171_06532"
    INDEX 01 01:23:74
  TRACK 65 AUDIO
    TITLE "0:"
    INDEX 01 01:25:18
  TRACK 66 AUDIO
    TITLE "13:cjc171_06533"
    INDEX 01 01:26:18
  TRACK 67 AUDIO
    TITLE "0:"
    INDEX 01 01:28:09
  TRACK 68 AUDIO
    TITLE "14:cjc171_06534"
    INDEX 01 01:28:48
  TRACK 69 AUDIO
    TITLE "0:"
    INDEX 01 01:30:66
  TRACK 70 AUDIO
    TITLE "15:cjc171_06535"
    INDEX 01 01:31:23
  TRACK 71 AUDIO
    TITLE "0:"
    INDEX 01 01:33:41
  TRACK 72 AUDIO
    TITLE "11:cjc171_06536"
    INDEX 01 01:34:47
  TRACK 73 AUDIO
    TITLE "0:"
    INDEX 01 01:35:62
  TRACK 74 AUDIO
    TITLE "12:cjc171_06537"
    INDEX 01 01:36:28
  TRACK 75 AUDIO
    TITLE "0:"
    INDEX 01 01:38:29
  TRACK 76 AUDIO
    TITLE "13:cjc171_06538"
    INDEX 01 01:39:30
  TRACK 77 AUDIO
    TITLE "0:"
    INDEX 01 01:41:13
  TRACK 78 AUDIO
    TITLE "14:cjc171_06539"
    INDEX 01 01:41:51
  TRACK 79 AUDIO
    TITLE "0:"
    INDEX 01 01:43:57
  TRACK 80 AUDIO
    TITLE "15:cjc171_06540"
    INDEX 01 01:44:12
  TRACK 81 AUDIO
    TITLE "0:"
    INDEX 01 01:46:20
  TRACK 82 AUDIO
    TITLE "11:cjc171_06541"
    INDEX 01 01:47:24
  TRACK 83 AUDIO
    TITLE "0:"
    INDEX 01 01:48:23
  TRACK 84 AUDIO
    TITLE "12:cjc171_06542"
    INDEX 01 01:48:64
  TRACK 85 AUDIO
    TITLE "0:"
    INDEX 01 01:51:20
  TRACK 86 AUDIO
    TITLE "13:cjc171_06543"
    INDEX 01 01:52:19
  TRACK 87 AUDIO
    TITLE "0:"
    INDEX 01 01:53:73
  TRACK 88 AUDIO
    TITLE "14:cjc171_06544"
    INDEX 01 01:54:40
  TRACK 89 AUDIO
    TITLE "0:"
    INDEX 01 01:56:29
  TRACK 90 AUDIO
    TITLE "15:cjc171_06545"
    INDEX 01 01:56:60
  TRACK 91 AUDIO
    TITLE "0:"
    INDEX 01 01:58:51
  TRACK 92 AUDIO
    TITLE "11:cjc171_06546"
    INDEX 01 01:59:56
  TRACK 93 AUDIO
    TITLE "0:"
    INDEX 01 02:00:72
  TRACK 94 AUDIO
    TITLE "12:cjc171_06547"
    INDEX 01 02:01:38
  TRACK 95 AUDIO
    TITLE "0:"
    INDEX 01 02:03:54
  TRACK 96 AUDIO
    TITLE "13:cjc171_06548"
    INDEX 01 02:04:54
  TRACK 97 AUDIO
    TITLE "0:"
    INDEX 01 02:06:37
  TRACK 98 AUDIO
    TITLE "14:cjc171_06549"
    INDEX 01 02:07:03
  TRACK 99 AUDIO
    TITLE "0:"
    INDEX 01 02:09:25
  TRACK 100 AUDIO
    TITLE "15:cjc171_06550"
    INDEX 01 02:09:55
  TRACK 101 AUDIO
    TITLE "0:"
    INDEX 01 02:12:02
  TRACK 102 AUDIO
    TITLE "11:cjc171_06551"
    INDEX 01 02:13:02
  TRACK 103 AUDIO
    TITLE "0:"
    INDEX 01 02:14:13
  TRACK 104 AUDIO
    TITLE "12:cjc171_06552"
    INDEX 01 02:14:48
  TRACK 105 AUDIO
    TITLE "0:"
    INDEX 01 02:17:31
  TRACK 106 AUDIO
    TITLE "13:cjc171_06553"
    INDEX 01 02:18:30
  TRACK 107 AUDIO
    TITLE "0:"
    INDEX 01 02:20:64
  TRACK 108 AUDIO
    TITLE "14:cjc171_06554"
    INDEX 01 02:21:25
  TRACK 109 AUDIO
    TITLE "0:"
    INDEX 01 02:23:63
  TRACK 110 AUDIO
    TITLE "15:cjc171_06555"
    INDEX 01 02:24:09
  TRACK 111 AUDIO
    TITLE "0:"
    INDEX 01 02:26:45
  TRACK 112 AUDIO
    TITLE "11:cjc171_06556"
    INDEX 01 02:27:41
  TRACK 113 AUDIO
    TITLE "0:"
    INDEX 01 02:28:60
  TRACK 114 AUDIO
    TITLE "12:cjc171_06557"
    INDEX 01 02:29:20
  TRACK 115 AUDIO
    TITLE "0:"
    INDEX 01 02:32:56
  TRACK 116 AUDIO
    TITLE "13:cjc171_06558"
    INDEX 01 02:33:55
  TRACK 117 AUDIO
    TITLE "0:"
    INDEX 01 02:35:23
  TRACK 118 AUDIO
    TITLE "14:cjc171_06559"
    INDEX 01 02:35:56
  TRACK 119 AUDIO
    TITLE "0:"
    INDEX 01 02:38:04
  TRACK 120 AUDIO
    TITLE "15:cjc171_06560"
    INDEX 01 02:38:23
  TRACK 121 AUDIO
    TITLE "0:"
    INDEX 01 02:40:44
  TRACK 122 AUDIO
    TITLE "11:cjc171_06561"
    INDEX 01 02:41:37
  TRACK 123 AUDIO
    TITLE "0:"
    INDEX 01 02:42:52
  TRACK 124 AUDIO
    TITLE "12:cjc171_06562"
    INDEX 01 02:43:15
  TRACK 125 AUDIO
    TITLE "0:"
    INDEX 01 02:44:36
  TRACK 126 AUDIO
    TITLE "13:cjc171_06563"
    INDEX 01 02:45:35
  TRACK 127 AUDIO
    TITLE "0:"
    INDEX 01 02:48:04
  TRACK 128 AUDIO
    TITLE "14:cjc171_06564"
    INDEX 01 02:48:37
  TRACK 129 AUDIO
    TITLE "0:"
    INDEX 01 02:50:42
  TRACK 130 AUDIO
    TITLE "15:cjc171_06565"
    INDEX 01 02:50:62
  TRACK 131 AUDIO
    TITLE "0:"
    INDEX 01 02:52:68
  TRACK 132 AUDIO
    TITLE "11:cjc171_06566"
    INDEX 01 02:53:60
  TRACK 133 AUDIO
    TITLE "0:"
    INDEX 01 02:55:04
  TRACK 134 AUDIO
    TITLE "12:cjc171_06567"
    INDEX 01 02:55:39
  TRACK 135 AUDIO
    TITLE "0:"
    INDEX 01 02:59:23
  TRACK 136 AUDIO
    TITLE "13:cjc171_06568"
    INDEX 01 03:00:23
  TRACK 137 AUDIO
    TITLE "0:"
    INDEX 01 03:03:27
  TRACK 138 AUDIO
    TITLE "14:cjc171_06569"
    INDEX 01 03:03:62
  TRACK 139 AUDIO
    TITLE "0:"
    INDEX 01 03:06:23
  TRACK 140 AUDIO
    TITLE "15:cjc171_06570"
    INDEX 01 03:06:45
  TRACK 141 AUDIO
    TITLE "0:"
    INDEX 01 03:09:06
  TRACK 142 AUDIO
    TITLE "11:cjc171_06571"
    INDEX 01 03:10:02
  TRACK 143 AUDIO
    TITLE "0:"
    INDEX 01 03:11:17
  TRACK 144 AUDIO
    TITLE "12:cjc171_06572"
    INDEX 01 03:11:52
  TRACK 145 AUDIO
    TITLE "0:"
    INDEX 01 03:13:02
  TRACK 146 AUDIO
    TITLE "13:cjc171_06573"
    INDEX 01 03:14:05
  TRACK 147 AUDIO
    TITLE "0:"
    INDEX 01 03:15:38
  TRACK 148 AUDIO
    TITLE "14:cjc171_06574"
    INDEX 01 03:15:71
  TRACK 149 AUDIO
    TITLE "0:"
    INDEX 01 03:17:45
  TRACK 150 AUDIO
    TITLE "15:cjc171_06575"
    INDEX 01 03:17:64
  TRACK 151 AUDIO
    TITLE "0:"
    INDEX 01 03:19:36
  TRACK 152 AUDIO
    TITLE "11:cjc171_06576"
    INDEX 01 03:20:31
  TRACK 153 AUDIO
    TITLE "0:"
    INDEX 01 03:21:31
  TRACK 154 AUDIO
    TITLE "12:cjc171_06577"
    INDEX 01 03:21:64
  TRACK 155 AUDIO
    TITLE "0:"
    INDEX 01 03:23:75
  TRACK 156 AUDIO
    TITLE "13:cjc171_06578"
    INDEX 01 03:24:72
  TRACK 157 AUDIO
    TITLE "0:"
    INDEX 01 03:27:28
  TRACK 158 AUDIO
    TITLE "14:cjc171_06579"
    INDEX 01 03:27:65
  TRACK 159 AUDIO
    TITLE "0:"
    INDEX 01 03:29:73
  TRACK 160 AUDIO
    TITLE "15:cjc171_06580"
    INDEX 01 03:30:24
  TRACK 161 AUDIO
    TITLE "0:"
    INDEX 01 03:32:31
  TRACK 162 AUDIO
    TITLE "11:cjc171_06581"
    INDEX 01 03:33:28
  TRACK 163 AUDIO
    TITLE "0:"
    INDEX 01 03:34:51
  TRACK 164 AUDIO
    TITLE "12:cjc171_06582"
    INDEX 01 03:35:13
  TRACK 165 AUDIO
    TITLE "0:"
    INDEX 01 03:36:54
  TRACK 166 AUDIO
    TITLE "13:cjc171_06583"
    INDEX 01 03:37:53
  TRACK 167 AUDIO
    TITLE "0:"
    INDEX 01 03:39:54
  TRACK 168 AUDIO
    TITLE "14:cjc171_06584"
    INDEX 01 03:40:14
  TRACK 169 AUDIO
    TITLE "0:"
    INDEX 01 03:42:27
  TRACK 170 AUDIO
    TITLE "15:cjc171_06585"
    INDEX 01 03:42:51
  TRACK 171 AUDIO
    TITLE "0:"
    INDEX 01 03:44:61
  TRACK 172 AUDIO
    TITLE "11:cjc171_06586"
    INDEX 01 03:45:57
  TRACK 173 AUDIO
    TITLE "0:"
    INDEX 01 03:47:07
  TRACK 174 AUDIO
    TITLE "12:cjc171_06587"
    INDEX 01 03:47:42
  TRACK 175 AUDIO
    TITLE "0:"
    INDEX 01 03:50:38
  TRACK 176 AUDIO
    TITLE "13:cjc171_06588"
    INDEX 01 03:51:40
  TRACK 177 AUDIO
    TITLE "0:"
    INDEX 01 03:53:29
  TRACK 178 AUDIO
    TITLE "14:cjc171_06589"
    INDEX 01 03:53:62
  TRACK 179 AUDIO
    TITLE "0:"
    INDEX 01 03:55:51
  TRACK 180 AUDIO
    TITLE "15:cjc171_06590"
    INDEX 01 03:55:73
  TRACK 181 AUDIO
    TITLE "0:"
    INDEX 01 03:57:60
  TRACK 182 AUDIO
    TITLE "11:cjc171_06591"
    INDEX 01 03:58:57
  TRACK 183 AUDIO
    TITLE "0:"
    INDEX 01 03:59:65
  TRACK 184 AUDIO
    TITLE "12:cjc171_06592"
    INDEX 01 04:00:29
  TRACK 185 AUDIO
    TITLE "0:"
    INDEX 01 04:01:62
  TRACK 186 AUDIO
    TITLE "13:cjc171_06593"
    INDEX 01 04:02:59
  TRACK 187 AUDIO
    TITLE "0:"
    INDEX 01 04:05:10
  TRACK 188 AUDIO
    TITLE "14:cjc171_06594"
    INDEX 01 04:05:44
  TRACK 189 AUDIO
    TITLE "0:"
    INDEX 01 04:08:05
  TRACK 190 AUDIO
    TITLE "15:cjc171_06595"
    INDEX 01 04:08:26
  TRACK 191 AUDIO
    TITLE "0:"
    INDEX 01 04:10:63
  TRACK 192 AUDIO
    TITLE "11:cjc171_06596"
    INDEX 01 04:11:60
  TRACK 193 AUDIO
    TITLE "0:"
    INDEX 01 04:13:06
  TRACK 194 AUDIO
    TITLE "12:cjc171_06597"
    INDEX 01 04:13:51
  TRACK 195 AUDIO
    TITLE "0:"
    INDEX 01 04:15:32
  TRACK 196 AUDIO
    TITLE "13:cjc171_06598"
    INDEX 01 04:16:34
  TRACK 197 AUDIO
    TITLE "0:"
    INDEX 01 04:18:68
  TRACK 198 AUDIO
    TITLE "14:cjc171_06599"
    INDEX 01 04:19:26
  TRACK 199 AUDIO
    TITLE "0:"
    INDEX 01 04:21:62
  TRACK 200 AUDIO
    TITLE "15:cjc171_06600"
    INDEX 01 04:22:07
  TRACK 201 AUDIO
    TITLE "0:"
    INDEX 01 04:24:43
  TRACK 202 AUDIO
    TITLE "11:cjc171_06601"
    INDEX 01 04:25:37
  TRACK 203 AUDIO
    TITLE "0:"
    INDEX 01 04:26:67
  TRACK 204 AUDIO
    TITLE "12:cjc171_06602"
    INDEX 01 04:27:34
  TRACK 205 AUDIO
    TITLE "0:"
    INDEX 01 04:30:42
  TRACK 206 AUDIO
    TITLE "13:cjc171_06603"
    INDEX 01 04:31:41
  TRACK 207 AUDIO
    TITLE "0:"
    INDEX 01 04:33:66
  TRACK 208 AUDIO
    TITLE "14:cjc171_06604"
    INDEX 01 04:34:30
  TRACK 209 AUDIO
    TITLE "0:"
    INDEX 01 04:36:72
  TRACK 210 AUDIO
    TITLE "15:cjc171_06605"
    INDEX 01 04:37:28
  TRACK 211 AUDIO
    TITLE "0:"
    INDEX 01 04:39:68
  TRACK 212 AUDIO
    TITLE "11:cjc171_06606"
    INDEX 01 04:40:75
  TRACK 213 AUDIO
    TITLE "0:"
    INDEX 01 04:42:27
  TRACK 214 AUDIO
    TITLE "12:cjc171_06607"
    INDEX 01 04:42:66
  TRACK 215 AUDIO
    TITLE "0:"
    INDEX 01 04:44:13
  TRACK 216 AUDIO
    TITLE "13:cjc171_06608"
    INDEX 01 04:45:12
  TRACK 217 AUDIO
    TITLE "0:"
    INDEX 01 04:47:38
  TRACK 218 AUDIO
    TITLE "14:cjc171_06609"
    INDEX 01 04:48:04
  TRACK 219 AUDIO
    TITLE "0:"
    INDEX 01 04:50:39
  TRACK 220 AUDIO
    TITLE "15:cjc171_06610"
    INDEX 01 04:50:70
  TRACK 221 AUDIO
    TITLE "0:"
    INDEX 01 04:53:29
  TRACK 222 AUDIO
    TITLE "11:cjc171_06611"
    INDEX 01 04:54:34
  TRACK 223 AUDIO
    TITLE "0:"
    INDEX 01 04:55:52
  TRACK 224 AUDIO
    TITLE "12:cjc171_06612"
    INDEX 01 04:56:12
  TRACK 225 AUDIO
    TITLE "0:"
    INDEX 01 04:59:41
  TRACK 226 AUDIO
    TITLE "13:cjc171_06613"
    INDEX 01 05:00:43
  TRACK 227 AUDIO
    TITLE "0:"
    INDEX 01 05:02:22
  TRACK 228 AUDIO
    TITLE "14:cjc171_06614"
    INDEX 01 05:02:55
  TRACK 229 AUDIO
    TITLE "0:"
    INDEX 01 05:04:43
  TRACK 230 AUDIO
    TITLE "15:cjc171_06615"
    INDEX 01 05:04:66
  TRACK 231 AUDIO
    TITLE "0:"
    INDEX 01 05:06:53
  TRACK 232 AUDIO
    TITLE "11:cjc171_06616"
    INDEX 01 05:07:57
  TRACK 233 AUDIO
    TITLE "0:"
    INDEX 01 05:08:72
  TRACK 234 AUDIO
    TITLE "12:cjc171_06617"
    INDEX 01 05:09:32
  TRACK 235 AUDIO
    TITLE "0:"
    INDEX 01 05:12:07
  TRACK 236 AUDIO
    TITLE "13:cjc171_06618"
    INDEX 01 05:13:06
  TRACK 237 AUDIO
    TITLE "0:"
    INDEX 01 05:15:42
  TRACK 238 AUDIO
    TITLE "14:cjc171_06619"
    INDEX 01 05:16:13
  TRACK 239 AUDIO
    TITLE "0:"
    INDEX 01 05:18:21
  TRACK 240 AUDIO
    TITLE "15:cjc171_06620"
    INDEX 01 05:18:51
  TRACK 241 AUDIO
    TITLE "0:"
    INDEX 01 05:20:63
  TRACK 242 AUDIO
    TITLE "11:cjc171_06621"
    INDEX 01 05:21:69
  TRACK 243 AUDIO
    TITLE "0:"
    INDEX 01 05:23:24
  TRACK 244 AUDIO
    TITLE "12:cjc171_06622"
    INDEX 01 05:23:63
  TRACK 245 AUDIO
    TITLE "0:"
    INDEX 01 05:26:32
  TRACK 246 AUDIO
    TITLE "13:cjc171_06623"
    INDEX 01 05:27:32
  TRACK 247 AUDIO
    TITLE "0:"
    INDEX 01 05:29:45
  TRACK 248 AUDIO
    TITLE "14:cjc171_06624"
    INDEX 01 05:30:11
  TRACK 249 AUDIO
    TITLE "0:"
    INDEX 01 05:32:53
  TRACK 250 AUDIO
    TITLE "15:cjc171_06625"
    INDEX 01 05:33:07
  TRACK 251 AUDIO
    TITLE "0:"
    INDEX 01 05:35:49
  TRACK 252 AUDIO
    TITLE "11:cjc171_06626"
    INDEX 01 05:36:54
  TRACK 253 AUDIO
    TITLE "0:"
    INDEX 01 05:37:75
  TRACK 254 AUDIO
    TITLE "12:cjc171_06627"
    INDEX 01 05:38:51
  TRACK 255 AUDIO
    TITLE "0:"
    INDEX 01 05:40:62
  TRACK 256 AUDIO
    TITLE "13:cjc171_06628"
    INDEX 01 05:41:59
  TRACK 257 AUDIO
    TITLE "0:"
    INDEX 01 05:44:11
  TRACK 258 AUDIO
    TITLE "14:cjc171_06629"
    INDEX 01 05:44:50
  TRACK 259 AUDIO
    TITLE "0:"
    INDEX 01 05:47:27
  TRACK 260 AUDIO
    TITLE "15:cjc171_06630"
    INDEX 01 05:47:56
  TRACK 261 AUDIO
    TITLE "0:"
    INDEX 01 05:50:37
  TRACK 262 AUDIO
    TITLE "11:cjc171_06631"
    INDEX 01 05:51:42
  TRACK 263 AUDIO
    TITLE "0:"
    INDEX 01 05:52:55
  TRACK 264 AUDIO
    TITLE "12:cjc171_06632"
    INDEX 01 05:53:21
  TRACK 265 AUDIO
    TITLE "0:"
    INDEX 01 05:55:62
  TRACK 266 AUDIO
    TITLE "13:cjc171_06633"
    INDEX 01 05:56:63
  TRACK 267 AUDIO
    TITLE "0:"
    INDEX 01 05:59:16
  TRACK 268 AUDIO
    TITLE "14:cjc171_06634"
    INDEX 01 05:59:57
  TRACK 269 AUDIO
    TITLE "0:"
    INDEX 01 06:02:34
  TRACK 270 AUDIO
    TITLE "15:cjc171_06635"
    INDEX 01 06:02:64
  TRACK 271 AUDIO
    TITLE "0:"
    INDEX 01 06:05:38
  TRACK 272 AUDIO
    TITLE "11:cjc171_06636"
    INDEX 01 06:06:42
  TRACK 273 AUDIO
    TITLE "0:"
    INDEX 01 06:07:67
  TRACK 274 AUDIO
    TITLE "12:cjc171_06637"
    INDEX 01 06:08:29
  TRACK 275 AUDIO
    TITLE "0:"
    INDEX 01 06:11:41
  TRACK 276 AUDIO
    TITLE "13:cjc171_06638"
    INDEX 01 06:12:42
  TRACK 277 AUDIO
    TITLE "0:"
    INDEX 01 06:14:26
  TRACK 278 AUDIO
    TITLE "14:cjc171_06639"
    INDEX 01 06:14:65
  TRACK 279 AUDIO
    TITLE "0:"
    INDEX 01 06:16:73
  TRACK 280 AUDIO
    TITLE "15:cjc171_06640"
    INDEX 01 06:17:28
  TRACK 281 AUDIO
    TITLE "0:"
    INDEX 01 06:19:37
  TRACK 282 AUDIO
    TITLE "11:cjc171_06641"
    INDEX 01 06:20:40
  TRACK 283 AUDIO
    TITLE "0:"
    INDEX 01 06:21:51
  TRACK 284 AUDIO
    TITLE "12:cjc171_06642"
    INDEX 01 06:22:17
  TRACK 285 AUDIO
    TITLE "0:"
    INDEX 01 06:23:36
  TRACK 286 AUDIO
    TITLE "13:cjc171_06643"
    INDEX 01 06:24:38
  TRACK 287 AUDIO
    TITLE "0:"
    INDEX 01 06:26:09
  TRACK 288 AUDIO
    TITLE "14:cjc171_06644"
    INDEX 01 06:26:50
  TRACK 289 AUDIO
    TITLE "0:"
    INDEX 01 06:28:24
  TRACK 290 AUDIO
    TITLE "15:cjc171_06645"
    INDEX 01 06:28:55
  TRACK 291 AUDIO
    TITLE "0:"
    INDEX 01 06:30:29
  TRACK 292 AUDIO
    TITLE "11:cjc171_06646"
    INDEX 01 06:31:36
  TRACK 293 AUDIO
    TITLE "0:"
    INDEX 01 06:32:57
  TRACK 294 AUDIO
    TITLE "12:cjc171_06647"
    INDEX 01 06:33:19
  TRACK 295 AUDIO
    TITLE "0:"
    INDEX 01 06:35:38
  TRACK 296 AUDIO
    TITLE "13:cjc171_06648"
    INDEX 01 06:36:35
  TRACK 297 AUDIO
    TITLE "0:"
    INDEX 01 06:38:59
  TRACK 298 AUDIO
    TITLE "14:cjc171_06649"
    INDEX 01 06:39:24
  TRACK 299 AUDIO
    TITLE "0:"
    INDEX 01 06:42:08
  TRACK 300 AUDIO
    TITLE "15:cjc171_06650"
    INDEX 01 06:42:38
  TRACK 301 AUDIO
    TITLE "0:"
    INDEX 01 06:45:20
  TRACK 302 AUDIO
    TITLE "11:cjc171_06651"
    INDEX 01 06:46:20
  TRACK 303 AUDIO
    TITLE "0:"
    INDEX 01 06:47:41
  TRACK 304 AUDIO
    TITLE "12:cjc171_06652"
    INDEX 01 06:47:74
  TRACK 305 AUDIO
    TITLE "0:"
    INDEX 01 06:51:09
  TRACK 306 AUDIO
    TITLE "13:cjc171_06653"
    INDEX 01 06:52:03
  TRACK 307 AUDIO
    TITLE "0:"
    INDEX 01 06:53:41
  TRACK 308 AUDIO
    TITLE "14:cjc171_06654"
    INDEX 01 06:53:75
  TRACK 309 AUDIO
    TITLE "0:"
    INDEX 01 06:56:02
  TRACK 310 AUDIO
    TITLE "15:cjc171_06655"
    INDEX 01 06:56:24
  TRACK 311 AUDIO
    TITLE "0:"
    INDEX 01 06:58:29
  TRACK 312 AUDIO
    TITLE "11:cjc171_06656"
    INDEX 01 06:59:26
  TRACK 313 AUDIO
    TITLE "0:"
    INDEX 01 07:00:41
  TRACK 314 AUDIO
    TITLE "12:cjc171_06657"
    INDEX 01 07:01:02
  TRACK 315 AUDIO
    TITLE "0:"
    INDEX 01 07:02:23
  TRACK 316 AUDIO
    TITLE "13:cjc171_06658"
    INDEX 01 07:03:22
  TRACK 317 AUDIO
    TITLE "0:"
    INDEX 01 07:05:52
  TRACK 318 AUDIO
    TITLE "14:cjc171_06659"
    INDEX 01 07:06:13
  TRACK 319 AUDIO
    TITLE "0:"
    INDEX 01 07:08:39
  TRACK 320 AUDIO
    TITLE "15:cjc171_06660"
    INDEX 01 07:08:61
  TRACK 321 AUDIO
    TITLE "0:"
    INDEX 01 07:11:12
  TRACK 322 AUDIO
    TITLE "11:cjc171_06661"
    INDEX 01 07:12:07
  TRACK 323 AUDIO
    TITLE "0:"
    INDEX 01 07:13:05
  TRACK 324 AUDIO
    TITLE "12:cjc171_06662"
    INDEX 01 07:13:52
  TRACK 325 AUDIO
    TITLE "0:"
    INDEX 01 07:17:03
  TRACK 326 AUDIO
    TITLE "13:cjc171_06663"
    INDEX 01 07:18:02
  TRACK 327 AUDIO
    TITLE "0:"
    INDEX 01 07:20:50
  TRACK 328 AUDIO
    TITLE "14:cjc171_06664"
    INDEX 01 07:21:12
  TRACK 329 AUDIO
    TITLE "0:"
    INDEX 01 07:24:09
  TRACK 330 AUDIO
    TITLE "15:cjc171_06665"
    INDEX 01 07:24:32
  TRACK 331 AUDIO
    TITLE "0:"
    INDEX 01 07:27:28
  TRACK 332 AUDIO
    TITLE "11:cjc171_06666"
    INDEX 01 07:28:28
  TRACK 333 AUDIO
    TITLE "0:"
    INDEX 01 07:29:35
  TRACK 334 AUDIO
    TITLE "12:cjc171_06667"
    INDEX 01 07:29:72
  TRACK 335 AUDIO
    TITLE "0:"
    INDEX 01 07:33:17
  TRACK 336 AUDIO
    TITLE "13:cjc171_06668"
    INDEX 01 07:34:15
  TRACK 337 AUDIO
    TITLE "0:"
    INDEX 01 07:36:08
  TRACK 338 AUDIO
    TITLE "14:cjc171_06669"
    INDEX 01 07:36:41
  TRACK 339 AUDIO
    TITLE "0:"
    INDEX 01 07:38:34
  TRACK 340 AUDIO
    TITLE "15:cjc171_06670"
    INDEX 01 07:38:56
  TRACK 341 AUDIO
    TITLE "0:"
    INDEX 01 07:40:51
  TRACK 342 AUDIO
    TITLE "11:cjc171_06671"
    INDEX 01 07:41:48
  TRACK 343 AUDIO
    TITLE "0:"
    INDEX 01 07:42:52
  TRACK 344 AUDIO
    TITLE "12:cjc171_06672"
    INDEX 01 07:43:14
  TRACK 345 AUDIO
    TITLE "0:"
    INDEX 01 07:44:58
  TRACK 346 AUDIO
    TITLE "13:cjc171_06673"
    INDEX 01 07:45:60
  TRACK 347 AUDIO
    TITLE "0:"
    INDEX 01 07:47:66
  TRACK 348 AUDIO
    TITLE "14:cjc171_06674"
    INDEX 01 07:48:31
  TRACK 349 AUDIO
    TITLE "0:"
    INDEX 01 07:49:73
  TRACK 350 AUDIO
    TITLE "15:cjc171_06675"
    INDEX 01 07:50:26
  TRACK 351 AUDIO
    TITLE "0:"
    INDEX 01 07:51:70
  TRACK 352 AUDIO
    TITLE "11:cjc171_06676"
    INDEX 01 07:52:72
  TRACK 353 AUDIO
    TITLE "0:"
    INDEX 01 07:54:10
  TRACK 354 AUDIO
    TITLE "12:cjc171_06677"
    INDEX 01 07:54:45
  TRACK 355 AUDIO
    TITLE "0:"
    INDEX 01 07:56:69
  TRACK 356 AUDIO
    TITLE "13:cjc171_06678"
    INDEX 01 07:57:67
  TRACK 357 AUDIO
    TITLE "0:"
    INDEX 01 07:59:68
  TRACK 358 AUDIO
    TITLE "14:cjc171_06679"
    INDEX 01 08:00:24
  TRACK 359 AUDIO
    TITLE "0:"
    INDEX 01 08:02:50
  TRACK 360 AUDIO
    TITLE "15:cjc171_06680"
    INDEX 01 08:02:70
  TRACK 361 AUDIO
    TITLE "0:"
    INDEX 01 08:05:19
  TRACK 362 AUDIO
    TITLE "11:cjc171_06681"
    INDEX 01 08:06:17
  TRACK 363 AUDIO
    TITLE "0:"
    INDEX 01 08:07:46
  TRACK 364 AUDIO
    TITLE "12:cjc171_06682"
    INDEX 01 08:08:08
  TRACK 365 AUDIO
    TITLE "0:"
    INDEX 01 08:11:04
  TRACK 366 AUDIO
    TITLE "13:cjc171_06683"
    INDEX 01 08:12:02
  TRACK 367 AUDIO
    TITLE "0:"
    INDEX 01 08:13:46
  TRACK 368 AUDIO
    TITLE "14:cjc171_06684"
    INDEX 01 08:14:06
  TRACK 369 AUDIO
    TITLE "0:"
    INDEX 01 08:16:56
  TRACK 370 AUDIO
    TITLE "15:cjc171_06685"
    INDEX 01 08:16:74
  TRACK 371 AUDIO
    TITLE "0:"
    INDEX 01 08:19:49
  TRACK 372 AUDIO
    TITLE "11:cjc171_06686"
    INDEX 01 08:20:42
  TRACK 373 AUDIO
    TITLE "0:"
    INDEX 01 08:21:65
  TRACK 374 AUDIO
    TITLE "12:cjc171_06687"
    INDEX 01 08:22:28
  TRACK 375 AUDIO
    TITLE "0:"
    INDEX 01 08:25:12
  TRACK 376 AUDIO
    TITLE "13:cjc171_06688"
    INDEX 01 08:26:10
  TRACK 377 AUDIO
    TITLE "0:"
    INDEX 01 08:28:01
  TRACK 378 AUDIO
    TITLE "14:cjc171_06689"
    INDEX 01 08:28:42
  TRACK 379 AUDIO
    TITLE "0:"
    INDEX 01 08:31:38
  TRACK 380 AUDIO
    TITLE "15:cjc171_06690"
    INDEX 01 08:31:64
  TRACK 381 AUDIO
    TITLE "0:"
    INDEX 01 08:34:62
  TRACK 382 AUDIO
    TITLE "11:cjc171_06691"
    INDEX 01 08:35:60
  TRACK 383 AUDIO
    TITLE "0:"
    INDEX 01 08:37:19
  TRACK 384 AUDIO
    TITLE "12:cjc171_06692"
    INDEX 01 08:37:57
  TRACK 385 AUDIO
    TITLE "0:"
    INDEX 01 08:39:55
  TRACK 386 AUDIO
    TITLE "13:cjc171_06693"
    INDEX 01 08:40:53
  TRACK 387 AUDIO
    TITLE "0:"
    INDEX 01 08:42:48
  TRACK 388 AUDIO
    TITLE "14:cjc171_06694"
    INDEX 01 08:43:08
  TRACK 389 AUDIO
    TITLE "0:"
    INDEX 01 08:45:44
  TRACK 390 AUDIO
    TITLE "15:cjc171_06695"
    INDEX 01 08:45:64
  TRACK 391 AUDIO
    TITLE "0:"
    INDEX 01 08:48:27
  TRACK 392 AUDIO
    TITLE "11:cjc171_06696"
    INDEX 01 08:49:22
  TRACK 393 AUDIO
    TITLE "0:"
    INDEX 01 08:50:42
  TRACK 394 AUDIO
    TITLE "12:cjc171_06697"
    INDEX 01 08:51:04
  TRACK 395 AUDIO
    TITLE "0:"
    INDEX 01 08:53:44
  TRACK 396 AUDIO
    TITLE "13:cjc171_06698"
    INDEX 01 08:54:45
  TRACK 397 AUDIO
    TITLE "0:"
    INDEX 01 08:56:42
  TRACK 398 AUDIO
    TITLE "14:cjc171_06699"
    INDEX 01 08:57:04
  TRACK 399 AUDIO
    TITLE "0:"
    INDEX 01 08:58:72
  TRACK 400 AUDIO
    TITLE "15:cjc171_06700"
    INDEX 01 08:59:21
  TRACK 401 AUDIO
    TITLE "0:"
    INDEX 01 09:01:12
  TRACK 402 AUDIO
    TITLE "11:cjc171_06701"
    INDEX 01 09:02:07
  TRACK 403 AUDIO
    TITLE "0:"
    INDEX 01 09:03:19
  TRACK 404 AUDIO
    TITLE "12:cjc171_06702"
    INDEX 01 09:03:60
  TRACK 405 AUDIO
    TITLE "0:"
    INDEX 01 09:07:26
  TRACK 406 AUDIO
    TITLE "13:cjc171_06703"
    INDEX 01 09:08:20
  TRACK 407 AUDIO
    TITLE "0:"
    INDEX 01 09:09:60
  TRACK 408 AUDIO
    TITLE "14:cjc171_06704"
    INDEX 01 09:10:30
  TRACK 409 AUDIO
    TITLE "0:"
    INDEX 01 09:12:20
  TRACK 410 AUDIO
    TITLE "15:cjc171_06705"
    INDEX 01 09:12:51
  TRACK 411 AUDIO
    TITLE "0:"
    INDEX 01 09:14:42
  TRACK 412 AUDIO
    TITLE "11:cjc171_06706"
    INDEX 01 09:15:47
  TRACK 413 AUDIO
    TITLE "0:"
    INDEX 01 09:16:64
  TRACK 414 AUDIO
    TITLE "12:cjc171_06707"
    INDEX 01 09:17:27
  TRACK 415 AUDIO
    TITLE "0:"
    INDEX 01 09:19:16
  TRACK 416 AUDIO
    TITLE "13:cjc171_06708"
    INDEX 01 09:20:09
  TRACK 417 AUDIO
    TITLE "0:"
    INDEX 01 09:22:57
  TRACK 418 AUDIO
    TITLE "14:cjc171_06709"
    INDEX 01 09:23:16
  TRACK 419 AUDIO
    TITLE "0:"
    INDEX 01 09:25:38
  TRACK 420 AUDIO
    TITLE "15:cjc171_06710"
    INDEX 01 09:25:59
  TRACK 421 AUDIO
    TITLE "0:"
    INDEX 01 09:28:09
  TRACK 422 AUDIO
    TITLE "11:cjc171_06711"
    INDEX 01 09:29:10
  TRACK 423 AUDIO
    TITLE "0:"
    INDEX 01 09:30:14
  TRACK 424 AUDIO
    TITLE "12:cjc171_06712"
    INDEX 01 09:30:53
  TRACK 425 AUDIO
    TITLE "0:"
    INDEX 01 09:33:18
  TRACK 426 AUDIO
    TITLE "13:cjc171_06713"
    INDEX 01 09:34:17
  TRACK 427 AUDIO
    TITLE "0:"
    INDEX 01 09:36:12
  TRACK 428 AUDIO
    TITLE "14:cjc171_06714"
    INDEX 01 09:36:51
  TRACK 429 AUDIO
    TITLE "0:"
    INDEX 01 09:38:09
  TRACK 430 AUDIO
    TITLE "15:cjc171_06715"
    INDEX 01 09:38:37
  TRACK 431 AUDIO
    TITLE "0:"
    INDEX 01 09:39:69
  TRACK 432 AUDIO
    TITLE "11:cjc171_06716"
    INDEX 01 09:40:73
  TRACK 433 AUDIO
    TITLE "0:"
    INDEX 01 09:42:11
  TRACK 434 AUDIO
    TITLE "12:cjc171_06717"
    INDEX 01 09:42:50
  TRACK 435 AUDIO
    TITLE "0:"
    INDEX 01 09:45:41
  TRACK 436 AUDIO
    TITLE "13:cjc171_06718"
    INDEX 01 09:46:40
  TRACK 437 AUDIO
    TITLE "0:"
    INDEX 01 09:49:33
  TRACK 438 AUDIO
    TITLE "14:cjc171_06719"
    INDEX 01 09:49:72
  TRACK 439 AUDIO
    TITLE "0:"
    INDEX 01 09:52:37
  TRACK 440 AUDIO
    TITLE "15:cjc171_06720"
    INDEX 01 09:52:66
  TRACK 441 AUDIO
    TITLE "0:"
    INDEX 01 09:55:33
  TRACK 442 AUDIO
    TITLE "11:cjc171_06721"
    INDEX 01 09:56:37
  TRACK 443 AUDIO
    TITLE "0:"
    INDEX 01 09:57:57
  TRACK 444 AUDIO
    TITLE "12:cjc171_06722"
    INDEX 01 09:58:24
  TRACK 445 AUDIO
    TITLE "0:"
    INDEX 01 10:00:50
  TRACK 446 AUDIO
    TITLE "13:cjc171_06723"
    INDEX 01 10:01:49
  TRACK 447 AUDIO
    TITLE "0:"
    INDEX 01 10:03:29
  TRACK 448 AUDIO
    TITLE "14:cjc171_06724"
    INDEX 01 10:03:68
  TRACK 449 AUDIO
    TITLE "0:"
    INDEX 01 10:05:55
  TRACK 450 AUDIO
    TITLE "15:cjc171_06725"
    INDEX 01 10:06:09
  TRACK 451 AUDIO
    TITLE "0:"
    INDEX 01 10:08:01
  TRACK 452 AUDIO
    TITLE "11:cjc171_06726"
    INDEX 01 10:09:02
  TRACK 453 AUDIO
    TITLE "0:"
    INDEX 01 10:10:29
  TRACK 454 AUDIO
    TITLE "12:cjc171_06727"
    INDEX 01 10:10:68
  TRACK 455 AUDIO
    TITLE "0:"
    INDEX 01 10:12:10
  TRACK 456 AUDIO
    TITLE "13:cjc171_06728"
    INDEX 01 10:13:10
  TRACK 457 AUDIO
    TITLE "0:"
    INDEX 01 10:14:48
  TRACK 458 AUDIO
    TITLE "14:cjc171_06729"
    INDEX 01 10:15:12
  TRACK 459 AUDIO
    TITLE "0:"
    INDEX 01 10:17:01
  TRACK 460 AUDIO
    TITLE "15:cjc171_06730"
    INDEX 01 10:17:31
  TRACK 461 AUDIO
    TITLE "0:"
    INDEX 01 10:19:18
  TRACK 462 AUDIO
    TITLE "11:cjc171_06731"
    INDEX 01 10:20:21
  TRACK 463 AUDIO
    TITLE "0:"
    INDEX 01 10:21:33
  TRACK 464 AUDIO
    TITLE "12:cjc171_06732"
    INDEX 01 10:21:72
  TRACK 465 AUDIO
    TITLE "0:"
    INDEX 01 10:23:43
  TRACK 466 AUDIO
    TITLE "13:cjc171_06733"
    INDEX 01 10:24:43
  TRACK 467 AUDIO
    TITLE "0:"
    INDEX 01 10:26:16
  TRACK 468 AUDIO
    TITLE "14:cjc171_06734"
    INDEX 01 10:26:55
  TRACK 469 AUDIO
    TITLE "0:"
    INDEX 01 10:28:35
  TRACK 470 AUDIO
    TITLE "15:cjc171_06735"
    INDEX 01 10:28:64
  TRACK 471 AUDIO
    TITLE "0:"
    INDEX 01 10:30:45
  TRACK 472 AUDIO
    TITLE "11:cjc171_06736"
    INDEX 01 10:31:51
  TRACK 473 AUDIO
    TITLE "0:"
    INDEX 01 10:33:12
  TRACK 474 AUDIO
    TITLE "12:cjc171_06737"
    INDEX 01 10:33:53
  TRACK 475 AUDIO
    TITLE "0:"
    INDEX 01 10:36:28
  TRACK 476 AUDIO
    TITLE "13:cjc171_06738"
    INDEX 01 10:37:24
  TRACK 477 AUDIO
    TITLE "0:"
    INDEX 01 10:39:36
  TRACK 478 AUDIO
    TITLE "14:cjc171_06739"
    INDEX 01 10:40:01
  TRACK 479 AUDIO
    TITLE "0:"
    INDEX 01 10:41:70
  TRACK 480 AUDIO
    TITLE "15:cjc171_06740"
    INDEX 01 10:42:25
  TRACK 481 AUDIO
    TITLE "0:"
    INDEX 01 10:44:22
  TRACK 482 AUDIO
    TITLE "11:cjc171_06741"
    INDEX 01 10:45:25
  TRACK 483 AUDIO
    TITLE "0:"
    INDEX 01 10:46:40
  TRACK 484 AUDIO
    TITLE "12:cjc171_06742"
    INDEX 01 10:47:04
  TRACK 485 AUDIO
    TITLE "0:"
    INDEX 01 10:49:35
  TRACK 486 AUDIO
    TITLE "13:cjc171_06743"
    INDEX 01 10:50:22
  TRACK 487 AUDIO
    TITLE "0:"
    INDEX 01 10:52:02
  TRACK 488 AUDIO
    TITLE "14:cjc171_06744"
    INDEX 01 10:52:39
  TRACK 489 AUDIO
    TITLE "0:"
    INDEX 01 10:54:32
  TRACK 490 AUDIO
    TITLE "15:cjc171_06745"
    INDEX 01 10:54:61
  TRACK 491 AUDIO
    TITLE "0:"
    INDEX 01 10:56:54
  TRACK 492 AUDIO
    TITLE "11:cjc171_06746"
    INDEX 01 10:57:60
  TRACK 493 AUDIO
    TITLE "0:"
    INDEX 01 10:58:69
  TRACK 494 AUDIO
    TITLE "12:cjc171_06747"
    INDEX 01 10:59:31
  TRACK 495 AUDIO
    TITLE "0:"
    INDEX 01 11:01:42
  TRACK 496 AUDIO
    TITLE "13:cjc171_06748"
    INDEX 01 11:02:41
  TRACK 497 AUDIO
    TITLE "0:"
    INDEX 01 11:05:12
  TRACK 498 AUDIO
    TITLE "14:cjc171_06749"
    INDEX 01 11:05:51
  TRACK 499 AUDIO
    TITLE "0:"
    INDEX 01 11:07:40
  TRACK 500 AUDIO
    TITLE "15:cjc171_06750"
    INDEX 01 11:07:70
  TRACK 501 AUDIO
    TITLE "0:"
    INDEX 01 11:09:59
  TRACK 502 AUDIO
    TITLE "11:cjc171_06751"
    INDEX 01 11:10:56
  TRACK 503 AUDIO
    TITLE "0:"
    INDEX 01 11:12:06
  TRACK 504 AUDIO
    TITLE "12:cjc171_06752"
    INDEX 01 11:12:42
  TRACK 505 AUDIO
    TITLE "0:"
    INDEX 01 11:15:03
  TRACK 506 AUDIO
    TITLE "13:cjc171_06753"
    INDEX 01 11:16:02
  TRACK 507 AUDIO
    TITLE "0:"
    INDEX 01 11:18:11
  TRACK 508 AUDIO
    TITLE "14:cjc171_06754"
    INDEX 01 11:18:44
  TRACK 509 AUDIO
    TITLE "0:"
    INDEX 01 11:20:49
  TRACK 510 AUDIO
    TITLE "15:cjc171_06755"
    INDEX 01 11:20:73
  TRACK 511 AUDIO
    TITLE "0:"
    INDEX 01 11:23:02
  TRACK 512 AUDIO
    TITLE "11:cjc171_06756"
    INDEX 01 11:24:06
  TRACK 513 AUDIO
    TITLE "0:"
    INDEX 01 11:25:21
  TRACK 514 AUDIO
    TITLE "12:cjc171_06757"
    INDEX 01 11:25:56
  TRACK 515 AUDIO
    TITLE "0:"
    INDEX 01 11:29:46
  TRACK 516 AUDIO
    TITLE "13:cjc171_06758"
    INDEX 01 11:30:45
  TRACK 517 AUDIO
    TITLE "0:"
    INDEX 01 11:31:66
  TRACK 518 AUDIO
    TITLE "14:cjc171_06759"
    INDEX 01 11:32:25
  TRACK 519 AUDIO
    TITLE "0:"
    INDEX 01 11:34:12
  TRACK 520 AUDIO
    TITLE "15:cjc171_06760"
    INDEX 01 11:34:30
  TRACK 521 AUDIO
    TITLE "0:"
    INDEX 01 11:36:17
  TRACK 522 AUDIO
    TITLE "11:cjc171_06761"
    INDEX 01 11:37:10
  TRACK 523 AUDIO
    TITLE "0:"
    INDEX 01 11:38:19
  TRACK 524 AUDIO
    TITLE "12:cjc171_06762"
    INDEX 01 11:38:55
  TRACK 525 AUDIO
    TITLE "0:"
    INDEX 01 11:42:29
  TRACK 526 AUDIO
    TITLE "13:cjc171_06763"
    INDEX 01 11:43:27
  TRACK 527 AUDIO
    TITLE "0:"
    INDEX 01 11:45:21
  TRACK 528 AUDIO
    TITLE "14:cjc171_06764"
    INDEX 01 11:45:55
  TRACK 529 AUDIO
    TITLE "0:"
    INDEX 01 11:47:48
  TRACK 530 AUDIO
    TITLE "15:cjc171_06765"
    INDEX 01 11:47:73
  TRACK 531 AUDIO
    TITLE "0:"
    INDEX 01 11:49:55
  TRACK 532 AUDIO
    TITLE "11:cjc171_06766"
    INDEX 01 11:50:70
  TRACK 533 AUDIO
    TITLE "0:"
    INDEX 01 11:52:29
  TRACK 534 AUDIO
    TITLE "12:cjc171_06767"
    INDEX 01 11:52:65
  TRACK 535 AUDIO
    TITLE "0:"
    INDEX 01 11:55:45
  TRACK 536 AUDIO
    TITLE "13:cjc171_06768"
    INDEX 01 11:56:41
  TRACK 537 AUDIO
    TITLE "0:"
    INDEX 01 11:58:69
  TRACK 538 AUDIO
    TITLE "14:cjc171_06769"
    INDEX 01 11:59:31
  TRACK 539 AUDIO
    TITLE "0:"
    INDEX 01 12:01:56
  TRACK 540 AUDIO
    TITLE "15:cjc171_06770"
    INDEX 01 12:02:10
  TRACK 541 AUDIO
    TITLE "0:"
    INDEX 01 12:04:31
  TRACK 542 AUDIO
    TITLE "11:cjc171_06771"
    INDEX 01 12:05:32
  TRACK 543 AUDIO
    TITLE "0:"
    INDEX 01 12:06:45
  TRACK 544 AUDIO
    TITLE "12:cjc171_06772"
    INDEX 01 12:07:09
  TRACK 545 AUDIO
    TITLE "0:"
    INDEX 01 12:09:51
  TRACK 546 AUDIO
    TITLE "13:cjc171_06773"
    INDEX 01 12:10:51
  TRACK 547 AUDIO
    TITLE "0:"
    INDEX 01 12:12:44
  TRACK 548 AUDIO
    TITLE "14:cjc171_06774"
    INDEX 01 12:13:08
  TRACK 549 AUDIO
    TITLE "0:"
    INDEX 01 12:15:09
  TRACK 550 AUDIO
    TITLE "15:cjc171_06775"
    INDEX 01 12:15:32
  TRACK 551 AUDIO
    TITLE "0:"
    INDEX 01 12:17:31
  TRACK 552 AUDIO
    TITLE "11:cjc171_06776"
    INDEX 01 12:18:27
  TRACK 553 AUDIO
    TITLE "0:"
    INDEX 01 12:19:42
  TRACK 554 AUDIO
    TITLE "12:cjc171_06777"
    INDEX 01 12:20:06
  TRACK 555 AUDIO
    TITLE "0:"
    INDEX 01 12:21:57
  TRACK 556 AUDIO
    TITLE "13:cjc171_06778"
    INDEX 01 12:22:58
  TRACK 557 AUDIO
    TITLE "0:"
    INDEX 01 12:24:74
  TRACK 558 AUDIO
    TITLE "14:cjc171_06779"
    INDEX 01 12:25:33
  TRACK 559 AUDIO
    TITLE "0:"
    INDEX 01 12:27:04
  TRACK 560 AUDIO
    TITLE "15:cjc171_06780"
    INDEX 01 12:27:24
  TRACK 561 AUDIO
    TITLE "0:"
    INDEX 01 12:28:72
  TRACK 562 AUDIO
    TITLE "11:cjc171_06781"
    INDEX 01 12:29:68
  TRACK 563 AUDIO
    TITLE "0:"
    INDEX 01 12:31:10
  TRACK 564 AUDIO
    TITLE "12:cjc171_06782"
    INDEX 01 12:31:47
  TRACK 565 AUDIO
    TITLE "0:"
    INDEX 01 12:33:13
  TRACK 566 AUDIO
    TITLE "13:cjc171_06783"
    INDEX 01 12:34:08
  TRACK 567 AUDIO
    TITLE "0:"
    INDEX 01 12:36:07
  TRACK 568 AUDIO
    TITLE "14:cjc171_06784"
    INDEX 01 12:36:40
  TRACK 569 AUDIO
    TITLE "0:"
    INDEX 01 12:38:30
  TRACK 570 AUDIO
    TITLE "15:cjc171_06785"
    INDEX 01 12:38:49
  TRACK 571 AUDIO
    TITLE "0:"
    INDEX 01 12:40:40
  TRACK 572 AUDIO
    TITLE "11:cjc171_06786"
    INDEX 01 12:41:34
  TRACK 573 AUDIO
    TITLE "0:"
    INDEX 01 12:42:49
  TRACK 574 AUDIO
    TITLE "12:cjc171_06787"
    INDEX 01 12:43:07
  TRACK 575 AUDIO
    TITLE "0:"
    INDEX 01 12:44:16
  TRACK 576 AUDIO
    TITLE "13:cjc171_06788"
    INDEX 01 12:45:14
  TRACK 577 AUDIO
    TITLE "0:"
    INDEX 01 12:48:04
  TRACK 578 AUDIO
    TITLE "14:cjc171_06789"
    INDEX 01 12:48:40
  TRACK 579 AUDIO
    TITLE "0:"
    INDEX 01 12:51:34
  TRACK 580 AUDIO
    TITLE "15:cjc171_06790"
    INDEX 01 12:51:54
  TRACK 581 AUDIO
    TITLE "0:"
    INDEX 01 12:54:48
  TRACK 582 AUDIO
    TITLE "11:cjc171_06791"
    INDEX 01 12:55:44
  TRACK 583 AUDIO
    TITLE "0:"
    INDEX 01 12:56:73
  TRACK 584 AUDIO
    TITLE "12:cjc171_06792"
    INDEX 01 12:57:29
  TRACK 585 AUDIO
    TITLE "0:"
    INDEX 01 12:59:55
  TRACK 586 AUDIO
    TITLE "13:cjc171_06793"
    INDEX 01 13:00:55
  TRACK 587 AUDIO
    TITLE "0:"
    INDEX 01 13:02:63
  TRACK 588 AUDIO
    TITLE "14:cjc171_06794"
    INDEX 01 13:03:22
  TRACK 589 AUDIO
    TITLE "0:"
    INDEX 01 13:06:06
  TRACK 590 AUDIO
    TITLE "15:cjc171_06795"
    INDEX 01 13:06:30
  TRACK 591 AUDIO
    TITLE "0:"
    INDEX 01 13:09:16
  TRACK 592 AUDIO
    TITLE "11:cjc171_06796"
    INDEX 01 13:10:12
  TRACK 593 AUDIO
    TITLE "0:"
    INDEX 01 13:11:29
  TRACK 594 AUDIO
    TITLE "12:cjc171_06797"
    INDEX 01 13:11:64
  TRACK 595 AUDIO
    TITLE "0:"
    INDEX 01 13:14:45
  TRACK 596 AUDIO
    TITLE "13:cjc171_06798"
    INDEX 01 13:15:44
  TRACK 597 AUDIO
    TITLE "0:"
    INDEX 01 13:18:66
  TRACK 598 AUDIO
    TITLE "14:cjc171_06799"
    INDEX 01 13:19:25
  TRACK 599 AUDIO
    TITLE "0:"
    INDEX 01 13:22:05
  TRACK 600 AUDIO
    TITLE "15:cjc171_06800"
    INDEX 01 13:22:25
  TRACK 601 AUDIO
    TITLE "0:"
    INDEX 01 13:25:06
  TRACK 602 AUDIO
    TITLE "11:cjc171_06801"
    INDEX 01 13:26:05
  TRACK 603 AUDIO
    TITLE "0:"
    INDEX 01 13:27:42
  TRACK 604 AUDIO
    TITLE "12:cjc171_06802"
    INDEX 01 13:28:06
  TRACK 605 AUDIO
    TITLE "0:"
    INDEX 01 13:32:10
  TRACK 606 AUDIO
    TITLE "13:cjc171_06803"
    INDEX 01 13:33:09
  TRACK 607 AUDIO
    TITLE "0:"
    INDEX 01 13:36:37
  TRACK 608 AUDIO
    TITLE "14:cjc171_06804"
    INDEX 01 13:37:03
  TRACK 609 AUDIO
    TITLE "0:"
    INDEX 01 13:40:31
  TRACK 610 AUDIO
    TITLE "15:cjc171_06805"
    INDEX 01 13:40:60
  TRACK 611 AUDIO
    TITLE "0:"
    INDEX 01 13:44:13
  TRACK 612 AUDIO
    TITLE "11:cjc171_06806"
    INDEX 01 13:45:16
  TRACK 613 AUDIO
    TITLE "0:"
    INDEX 01 13:46:19
  TRACK 614 AUDIO
    TITLE "12:cjc171_06807"
    INDEX 01 13:46:57
  TRACK 615 AUDIO
    TITLE "0:"
    INDEX 01 13:47:64
  TRACK 616 AUDIO
    TITLE "13:cjc171_06808"
    INDEX 01 13:48:61
  TRACK 617 AUDIO
    TITLE "0:"
    INDEX 01 13:51:21
  TRACK 618 AUDIO
    TITLE "14:cjc171_06809"
    INDEX 01 13:51:60
  TRACK 619 AUDIO
    TITLE "0:"
    INDEX 01 13:53:72
  TRACK 620 AUDIO
    TITLE "15:cjc171_06810"
    INDEX 01 13:54:27
  TRACK 621 AUDIO
    TITLE "0:"
    INDEX 01 13:56:39
  TRACK 622 AUDIO
    TITLE "11:cjc171_06811"
    INDEX 01 13:57:45
  TRACK 623 AUDIO
    TITLE "0:"
    INDEX 01 13:58:64
  TRACK 624 AUDIO
    TITLE "12:cjc171_06812"
    INDEX 01 13:59:28
  TRACK 625 AUDIO
    TITLE "0:"
    INDEX 01 14:02:05
  TRACK 626 AUDIO
    TITLE "13:cjc171_06813"
    INDEX 01 14:03:02
  TRACK 627 AUDIO
    TITLE "0:"
    INDEX 01 14:05:05
  TRACK 628 AUDIO
    TITLE "14:cjc171_06814"
    INDEX 01 14:05:44
  TRACK 629 AUDIO
    TITLE "0:"
    INDEX 01 14:07:75
  TRACK 630 AUDIO
    TITLE "15:cjc171_06815"
    INDEX 01 14:08:27
  TRACK 631 AUDIO
    TITLE "0:"
    INDEX 01 14:10:57
  TRACK 632 AUDIO
    TITLE "11:cjc171_06816"
    INDEX 01 14:11:61
  TRACK 633 AUDIO
    TITLE "0:"
    INDEX 01 14:12:74
  TRACK 634 AUDIO
    TITLE "12:cjc171_06817"
    INDEX 01 14:13:38
  TRACK 635 AUDIO
    TITLE "0:"
    INDEX 01 14:15:05
  TRACK 636 AUDIO
    TITLE "13:cjc171_06818"
    INDEX 01 14:16:05
  TRACK 637 AUDIO
    TITLE "0:"
    INDEX 01 14:19:31
  TRACK 638 AUDIO
    TITLE "14:cjc171_06819"
    INDEX 01 14:19:70
  TRACK 639 AUDIO
    TITLE "0:"
    INDEX 01 14:22:62
  TRACK 640 AUDIO
    TITLE "15:cjc171_06820"
    INDEX 01 14:23:17
  TRACK 641 AUDIO
    TITLE "0:"
    INDEX 01 14:26:09
  TRACK 642 AUDIO
    TITLE "11:cjc171_06821"
    INDEX 01 14:27:15
  TRACK 643 AUDIO
    TITLE "0:"
    INDEX 01 14:28:34
  TRACK 644 AUDIO
    TITLE "12:cjc171_06822"
    INDEX 01 14:28:75
  TRACK 645 AUDIO
    TITLE "0:"
    INDEX 01 14:31:46
  TRACK 646 AUDIO
    TITLE "13:cjc171_06823"
    INDEX 01 14:32:47
  TRACK 647 AUDIO
    TITLE "0:"
    INDEX 01 14:34:32
  TRACK 648 AUDIO
    TITLE "14:cjc171_06824"
    INDEX 01 14:34:71
  TRACK 649 AUDIO
    TITLE "0:"
    INDEX 01 14:36:72
  TRACK 650 AUDIO
    TITLE "15:cjc171_06825"
    INDEX 01 14:37:27
  TRACK 651 AUDIO
    TITLE "0:"
    INDEX 01 14:39:28
  TRACK 652 AUDIO
    TITLE "11:cjc171_06826"
    INDEX 01 14:40:31
  TRACK 653 AUDIO
    TITLE "0:"
    INDEX 01 14:41:50
  TRACK 654 AUDIO
    TITLE "12:cjc171_06827"
    INDEX 01 14:42:12
  TRACK 655 AUDIO
    TITLE "0:"
    INDEX 01 14:45:28
  TRACK 656 AUDIO
    TITLE "13:cjc171_06828"
    INDEX 01 14:46:30
  TRACK 657 AUDIO
    TITLE "0:"
    INDEX 01 14:48:48
  TRACK 658 AUDIO
    TITLE "14:cjc171_06829"
    INDEX 01 14:49:12
  TRACK 659 AUDIO
    TITLE "0:"
    INDEX 01 14:51:23
  TRACK 660 AUDIO
    TITLE "15:cjc171_06830"
    INDEX 01 14:51:54
  TRACK 661 AUDIO
    TITLE "0:"
    INDEX 01 14:53:65
  TRACK 662 AUDIO
    TITLE "11:cjc171_06831"
    INDEX 01 14:54:72
  TRACK 663 AUDIO
    TITLE "0:"
    INDEX 01 14:55:72
  TRACK 664 AUDIO
    TITLE "12:cjc171_06832"
    INDEX 01 14:56:36
  TRACK 665 AUDIO
    TITLE "0:"
    INDEX 01 14:57:55
  TRACK 666 AUDIO
    TITLE "13:cjc171_06833"
    INDEX 01 14:58:42
  TRACK 667 AUDIO
    TITLE "0:"
    INDEX 01 15:00:24
  TRACK 668 AUDIO
    TITLE "14:cjc171_06834"
    INDEX 01 15:00:61
  TRACK 669 AUDIO
    TITLE "0:"
    INDEX 01 15:02:48
  TRACK 670 AUDIO
    TITLE "15:cjc171_06835"
    INDEX 01 15:03:04
  TRACK 671 AUDIO
    TITLE "0:"
    INDEX 01 15:04:65
  TRACK 672 AUDIO
    TITLE "11:cjc171_06836"
    INDEX 01 15:05:72
  TRACK 673 AUDIO
    TITLE "0:"
    INDEX 01 15:07:18
  TRACK 674 AUDIO
    TITLE "12:cjc171_06837"
    INDEX 01 15:07:57
  TRACK 675 AUDIO
    TITLE "0:"
    INDEX 01 15:10:32
  TRACK 676 AUDIO
    TITLE "13:cjc171_06838"
    INDEX 01 15:11:31
  TRACK 677 AUDIO
    TITLE "0:"
    INDEX 01 15:13:32
  TRACK 678 AUDIO
    TITLE "14:cjc171_06839"
    INDEX 01 15:13:73
  TRACK 679 AUDIO
    TITLE "0:"
    INDEX 01 15:15:68
  TRACK 680 AUDIO
    TITLE "15:cjc171_06840"
    INDEX 01 15:16:23
  TRACK 681 AUDIO
    TITLE "0:"
    INDEX 01 15:18:20
  TRACK 682 AUDIO
    TITLE "11:cjc171_06841"
    INDEX 01 15:19:23
  TRACK 683 AUDIO
    TITLE "0:"
    INDEX 01 15:20:34
  TRACK 684 AUDIO
    TITLE "12:cjc171_06842"
    INDEX 01 15:20:73
  TRACK 685 AUDIO
    TITLE "0:"
    INDEX 01 15:23:03
  TRACK 686 AUDIO
    TITLE "13:cjc171_06843"
    INDEX 01 15:24:01
  TRACK 687 AUDIO
    TITLE "0:"
    INDEX 01 15:26:47
  TRACK 688 AUDIO
    TITLE "14:cjc171_06844"
    INDEX 01 15:27:11
  TRACK 689 AUDIO
    TITLE "0:"
    INDEX 01 15:29:39
  TRACK 690 AUDIO
    TITLE "15:cjc171_06845"
    INDEX 01 15:29:69
  TRACK 691 AUDIO
    TITLE "0:"
    INDEX 01 15:32:22
  TRACK 692 AUDIO
    TITLE "11:cjc171_06846"
    INDEX 01 15:33:25
  TRACK 693 AUDIO
    TITLE "0:"
    INDEX 01 15:34:34
  TRACK 694 AUDIO
    TITLE "12:cjc171_06847"
    INDEX 01 15:34:64
  TRACK 695 AUDIO
    TITLE "0:"
    INDEX 01 15:37:25
  TRACK 696 AUDIO
    TITLE "13:cjc171_06848"
    INDEX 01 15:38:24
  TRACK 697 AUDIO
    TITLE "0:"
    INDEX 01 15:40:49
  TRACK 698 AUDIO
    TITLE "14:cjc171_06849"
    INDEX 01 15:41:13
  TRACK 699 AUDIO
    TITLE "0:"
    INDEX 01 15:43:33
  TRACK 700 AUDIO
    TITLE "15:cjc171_06850"
    INDEX 01 15:43:65
  TRACK 701 AUDIO
    TITLE "0:"
    INDEX 01 15:46:08
  TRACK 702 AUDIO
    TITLE "11:cjc171_06851"
    INDEX 01 15:47:10
  TRACK 703 AUDIO
    TITLE "0:"
    INDEX 01 15:48:25
  TRACK 704 AUDIO
    TITLE "12:cjc171_06852"
    INDEX 01 15:48:58
  TRACK 705 AUDIO
    TITLE "0:"
    INDEX 01 15:51:11
  TRACK 706 AUDIO
    TITLE "13:cjc171_06853"
    INDEX 01 15:52:13
  TRACK 707 AUDIO
    TITLE "0:"
    INDEX 01 15:54:08
  TRACK 708 AUDIO
    TITLE "14:cjc171_06854"
    INDEX 01 15:54:41
  TRACK 709 AUDIO
    TITLE "0:"
    INDEX 01 15:56:60
  TRACK 710 AUDIO
    TITLE "15:cjc171_06855"
    INDEX 01 15:57:04
  TRACK 711 AUDIO
    TITLE "0:"
    INDEX 01 15:59:23
  TRACK 712 AUDIO
    TITLE "11:cjc171_06856"
    INDEX 01 16:00:16
  TRACK 713 AUDIO
    TITLE "0:"
    INDEX 01 16:01:61
  TRACK 714 AUDIO
    TITLE "12:cjc171_06857"
    INDEX 01 16:02:21
  TRACK 715 AUDIO
    TITLE "0:"
    INDEX 01 16:04:65
  TRACK 716 AUDIO
    TITLE "13:cjc171_06858"
    INDEX 01 16:05:64
  TRACK 717 AUDIO
    TITLE "0:"
    INDEX 01 16:07:59
  TRACK 718 AUDIO
    TITLE "14:cjc171_06859"
    INDEX 01 16:08:20
  TRACK 719 AUDIO
    TITLE "0:"
    INDEX 01 16:10:67
  TRACK 720 AUDIO
    TITLE "15:cjc171_06860"
    INDEX 01 16:11:12
  TRACK 721 AUDIO
    TITLE "0:"
    INDEX 01 16:13:60
  TRACK 722 AUDIO
    TITLE "11:cjc171_06861"
    INDEX 01 16:14:54
  TRACK 723 AUDIO
    TITLE "0:"
    INDEX 01 16:15:61
  TRACK 724 AUDIO
    TITLE "12:cjc171_06862"
    INDEX 01 16:16:21
  TRACK 725 AUDIO
    TITLE "0:"
    INDEX 01 16:17:68
  TRACK 726 AUDIO
    TITLE "13:cjc171_06863"
    INDEX 01 16:18:69
  TRACK 727 AUDIO
    TITLE "0:"
    INDEX 01 16:21:01
  TRACK 728 AUDIO
    TITLE "14:cjc171_06864"
    INDEX 01 16:21:36
  TRACK 729 AUDIO
    TITLE "0:"
    INDEX 01 16:23:43
  TRACK 730 AUDIO
    TITLE "15:cjc171_06865"
    INDEX 01 16:23:64
  TRACK 731 AUDIO
    TITLE "0:"
    INDEX 01 16:25:71
  TRACK 732 AUDIO
    TITLE "11:cjc171_06866"
    INDEX 01 16:26:66
  TRACK 733 AUDIO
    TITLE "0:"
    INDEX 01 16:28:20
  TRACK 734 AUDIO
    TITLE "12:cjc171_06867"
    INDEX 01 16:28:60
  TRACK 735 AUDIO
    TITLE "0:"
    INDEX 01 16:30:27
  TRACK 736 AUDIO
    TITLE "13:cjc171_06868"
    INDEX 01 16:31:27
  TRACK 737 AUDIO
    TITLE "0:"
    INDEX 01 16:33:31
  TRACK 738 AUDIO
    TITLE "14:cjc171_06869"
    INDEX 01 16:33:70
  TRACK 739 AUDIO
    TITLE "0:"
    INDEX 01 16:36:08
  TRACK 740 AUDIO
    TITLE "15:cjc171_06870"
    INDEX 01 16:36:34
  TRACK 741 AUDIO
    TITLE "0:"
    INDEX 01 16:38:46
  TRACK 742 AUDIO
    TITLE "11:cjc171_06871"
    INDEX 01 16:39:44
  TRACK 743 AUDIO
    TITLE "0:"
    INDEX 01 16:40:47
  TRACK 744 AUDIO
    TITLE "12:cjc171_06872"
    INDEX 01 16:41:05
  TRACK 745 AUDIO
    TITLE "0:"
    INDEX 01 16:42:30
  TRACK 746 AUDIO
    TITLE "13:cjc171_06873"
    INDEX 01 16:43:30
  TRACK 747 AUDIO
    TITLE "0:"
    INDEX 01 16:45:19
  TRACK 748 AUDIO
    TITLE "14:cjc171_06874"
    INDEX 01 16:45:54
  TRACK 749 AUDIO
    TITLE "0:"
    INDEX 01 16:48:27
  TRACK 750 AUDIO
    TITLE "15:cjc171_06875"
    INDEX 01 16:48:48
  TRACK 751 AUDIO
    TITLE "0:"
    INDEX 01 16:51:19
  TRACK 752 AUDIO
    TITLE "11:cjc171_06876"
    INDEX 01 16:52:15
  TRACK 753 AUDIO
    TITLE "0:"
    INDEX 01 16:53:18
  TRACK 754 AUDIO
    TITLE "12:cjc171_06877"
    INDEX 01 16:53:54
  TRACK 755 AUDIO
    TITLE "0:"
    INDEX 01 16:56:30
  TRACK 756 AUDIO
    TITLE "13:cjc171_06878"
    INDEX 01 16:57:28
  TRACK 757 AUDIO
    TITLE "0:"
    INDEX 01 16:59:66
  TRACK 758 AUDIO
    TITLE "14:cjc171_06879"
    INDEX 01 17:00:26
  TRACK 759 AUDIO
    TITLE "0:"
    INDEX 01 17:02:43
  TRACK 760 AUDIO
    TITLE "15:cjc171_06880"
    INDEX 01 17:02:64
  TRACK 761 AUDIO
    TITLE "0:"
    INDEX 01 17:05:06
  TRACK 762 AUDIO
    TITLE "11:cjc171_06881"
    INDEX 01 17:06:01
  TRACK 763 AUDIO
    TITLE "0:"
    INDEX 01 17:07:16
  TRACK 764 AUDIO
    TITLE "12:cjc171_06882"
    INDEX 01 17:07:52
  TRACK 765 AUDIO
    TITLE "0:"
    INDEX 01 17:10:17
  TRACK 766 AUDIO
    TITLE "13:cjc171_06883"
    INDEX 01 17:11:16
  TRACK 767 AUDIO
    TITLE "0:"
    INDEX 01 17:13:33
  TRACK 768 AUDIO
    TITLE "14:cjc171_06884"
    INDEX 01 17:13:68
  TRACK 769 AUDIO
    TITLE "0:"
    INDEX 01 17:16:06
  TRACK 770 AUDIO
    TITLE "15:cjc171_06885"
    INDEX 01 17:16:31
  TRACK 771 AUDIO
    TITLE "0:"
    INDEX 01 17:18:44
  TRACK 772 AUDIO
    TITLE "11:cjc171_06886"
    INDEX 01 17:19:43
  TRACK 773 AUDIO
    TITLE "0:"
    INDEX 01 17:20:58
  TRACK 774 AUDIO
    TITLE "12:cjc171_06887"
    INDEX 01 17:21:19
  TRACK 775 AUDIO
    TITLE "0:"
    INDEX 01 17:23:63
  TRACK 776 AUDIO
    TITLE "13:cjc171_06888"
    INDEX 01 17:24:62
  TRACK 777 AUDIO
    TITLE "0:"
    INDEX 01 17:27:07
  TRACK 778 AUDIO
    TITLE "14:cjc171_06889"
    INDEX 01 17:27:41
  TRACK 779 AUDIO
    TITLE "0:"
    INDEX 01 17:29:49
  TRACK 780 AUDIO
    TITLE "15:cjc171_06890"
    INDEX 01 17:29:71
  TRACK 781 AUDIO
    TITLE "0:"
    INDEX 01 17:32:05
  TRACK 782 AUDIO
    TITLE "11:cjc171_06891"
    INDEX 01 17:32:75
  TRACK 783 AUDIO
    TITLE "0:"
    INDEX 01 17:34:11
  TRACK 784 AUDIO
    TITLE "12:cjc171_06892"
    INDEX 01 17:34:49
  TRACK 785 AUDIO
    TITLE "0:"
    INDEX 01 17:36:73
  TRACK 786 AUDIO
    TITLE "13:cjc171_06893"
    INDEX 01 17:37:70
  TRACK 787 AUDIO
    TITLE "0:"
    INDEX 01 17:39:73
  TRACK 788 AUDIO
    TITLE "14:cjc171_06894"
    INDEX 01 17:40:34
  TRACK 789 AUDIO
    TITLE "0:"
    INDEX 01 17:42:52
  TRACK 790 AUDIO
    TITLE "15:cjc171_06895"
    INDEX 01 17:42:74
  TRACK 791 AUDIO
    TITLE "0:"
    INDEX 01 17:45:17
  TRACK 792 AUDIO
    TITLE "11:cjc171_06896"
    INDEX 01 17:46:15
  TRACK 793 AUDIO
    TITLE "0:"
    INDEX 01 17:47:30
  TRACK 794 AUDIO
    TITLE "12:cjc171_06897"
    INDEX 01 17:47:63
  TRACK 795 AUDIO
    TITLE "0:"
    INDEX 01 17:50:40
  TRACK 796 AUDIO
    TITLE "13:cjc171_06898"
    INDEX 01 17:51:45
  TRACK 797 AUDIO
    TITLE "0:"
    INDEX 01 17:54:42
  TRACK 798 AUDIO
    TITLE "14:cjc171_06899"
    INDEX 01 17:55:02
  TRACK 799 AUDIO
    TITLE "0:"
    INDEX 01 17:57:40
  TRACK 800 AUDIO
    TITLE "15:cjc171_06900"
    INDEX 01 17:57:61
  TRACK 801 AUDIO
    TITLE "0:"
    INDEX 01 18:00:24
  TRACK 802 AUDIO
    TITLE "11:cjc171_06901"
    INDEX 01 18:01:28
  TRACK 803 AUDIO
    TITLE "0:"
    INDEX 01 18:02:45
  TRACK 804 AUDIO
    TITLE "12:cjc171_06902"
    INDEX 01 18:03:09
  TRACK 805 AUDIO
    TITLE "0:"
    INDEX 01 18:04:18
  TRACK 806 AUDIO
    TITLE "13:cjc171_06903"
    INDEX 01 18:05:18
  TRACK 807 AUDIO
    TITLE "0:"
    INDEX 01 18:07:25
  TRACK 808 AUDIO
    TITLE "14:cjc171_06904"
    INDEX 01 18:07:64
  TRACK 809 AUDIO
    TITLE "0:"
    INDEX 01 18:10:23
  TRACK 810 AUDIO
    TITLE "15:cjc171_06905"
    INDEX 01 18:10:50
  TRACK 811 AUDIO
    TITLE "0:"
    INDEX 01 18:13:09
  TRACK 812 AUDIO
    TITLE "11:cjc171_06906"
    INDEX 01 18:14:11
  TRACK 813 AUDIO
    TITLE "0:"
    INDEX 01 18:15:14
  TRACK 814 AUDIO
    TITLE "12:cjc171_06907"
    INDEX 01 18:15:53
  TRACK 815 AUDIO
    TITLE "0:"
    INDEX 01 18:16:61
  TRACK 816 AUDIO
    TITLE "13:cjc171_06908"
    INDEX 01 18:17:62
  TRACK 817 AUDIO
    TITLE "0:"
    INDEX 01 18:19:30
  TRACK 818 AUDIO
    TITLE "14:cjc171_06909"
    INDEX 01 18:19:69
  TRACK 819 AUDIO
    TITLE "0:"
    INDEX 01 18:21:42
  TRACK 820 AUDIO
    TITLE "15:cjc171_06910"
    INDEX 01 18:21:70
  TRACK 821 AUDIO
    TITLE "0:"
    INDEX 01 18:23:41
  TRACK 822 AUDIO
    TITLE "11:cjc171_06911"
    INDEX 01 18:24:45
  TRACK 823 AUDIO
    TITLE "0:"
    INDEX 01 18:25:64
  TRACK 824 AUDIO
    TITLE "12:cjc171_06912"
    INDEX 01 18:26:30
  TRACK 825 AUDIO
    TITLE "0:"
    INDEX 01 18:27:72
  TRACK 826 AUDIO
    TITLE "13:cjc171_06913"
    INDEX 01 18:28:72
  TRACK 827 AUDIO
    TITLE "0:"
    INDEX 01 18:31:64
  TRACK 828 AUDIO
    TITLE "14:cjc171_06914"
    INDEX 01 18:32:28
  TRACK 829 AUDIO
    TITLE "0:"
    INDEX 01 18:35:13
  TRACK 830 AUDIO
    TITLE "15:cjc171_06915"
    INDEX 01 18:35:40
  TRACK 831 AUDIO
    TITLE "0:"
    INDEX 01 18:38:27
  TRACK 832 AUDIO
    TITLE "11:cjc171_06916"
    INDEX 01 18:39:30
  TRACK 833 AUDIO
    TITLE "0:"
    INDEX 01 18:40:38
  TRACK 834 AUDIO
    TITLE "12:cjc171_06917"
    INDEX 01 18:41:02
  TRACK 835 AUDIO
    TITLE "0:"
    INDEX 01 18:43:22
  TRACK 836 AUDIO
    TITLE "13:cjc171_06918"
    INDEX 01 18:44:20
  TRACK 837 AUDIO
    TITLE "0:"
    INDEX 01 18:46:23
  TRACK 838 AUDIO
    TITLE "14:cjc171_06919"
    INDEX 01 18:46:64
  TRACK 839 AUDIO
    TITLE "0:"
    INDEX 01 18:48:45
  TRACK 840 AUDIO
    TITLE "15:cjc171_06920"
    INDEX 01 18:48:74
  TRACK 841 AUDIO
    TITLE "0:"
    INDEX 01 18:50:58
  TRACK 842 AUDIO
    TITLE "11:cjc171_06921"
    INDEX 01 18:51:61
  TRACK 843 AUDIO
    TITLE "0:"
    INDEX 01 18:52:72
  TRACK 844 AUDIO
    TITLE "12:cjc171_06922"
    INDEX 01 18:53:36
  TRACK 845 AUDIO
    TITLE "0:"
    INDEX 01 18:55:43
  TRACK 846 AUDIO
    TITLE "13:cjc171_06923"
    INDEX 01 18:56:41
  TRACK 847 AUDIO
    TITLE "0:"
    INDEX 01 18:57:70
  TRACK 848 AUDIO
    TITLE "14:cjc171_06924"
    INDEX 01 18:58:32
  TRACK 849 AUDIO
    TITLE "0:"
    INDEX 01 19:00:01
  TRACK 850 AUDIO
    TITLE "15:cjc171_06925"
    INDEX 01 19:00:31
  TRACK 851 AUDIO
    TITLE "0:"
    INDEX 01 19:02:02
  TRACK 852 AUDIO
    TITLE "11:cjc171_06926"
    INDEX 01 19:03:05
  TRACK 853 AUDIO
    TITLE "0:"
    INDEX 01 19:04:23
  TRACK 854 AUDIO
    TITLE "12:cjc171_06927"
    INDEX 01 19:04:64
  TRACK 855 AUDIO
    TITLE "0:"
    INDEX 01 19:07:58
  TRACK 856 AUDIO
    TITLE "13:cjc171_06928"
    INDEX 01 19:08:56
  TRACK 857 AUDIO
    TITLE "0:"
    INDEX 01 19:10:72
  TRACK 858 AUDIO
    TITLE "14:cjc171_06929"
    INDEX 01 19:11:36
  TRACK 859 AUDIO
    TITLE "0:"
    INDEX 01 19:13:43
  TRACK 860 AUDIO
    TITLE "15:cjc171_06930"
    INDEX 01 19:13:70
  TRACK 861 AUDIO
    TITLE "0:"
    INDEX 01 19:16:02
  TRACK 862 AUDIO
    TITLE "11:cjc171_06931"
    INDEX 01 19:17:06
  TRACK 863 AUDIO
    TITLE "0:"
    INDEX 01 19:18:11
  TRACK 864 AUDIO
    TITLE "12:cjc171_06932"
    INDEX 01 19:18:48
  TRACK 865 AUDIO
    TITLE "0:"
    INDEX 01 19:20:04
  TRACK 866 AUDIO
    TITLE "13:cjc171_06933"
    INDEX 01 19:21:01
  TRACK 867 AUDIO
    TITLE "0:"
    INDEX 01 19:23:26
  TRACK 868 AUDIO
    TITLE "14:cjc171_06934"
    INDEX 01 19:23:63
  TRACK 869 AUDIO
    TITLE "0:"
    INDEX 01 19:25:72
  TRACK 870 AUDIO
    TITLE "15:cjc171_06935"
    INDEX 01 19:26:24
  TRACK 871 AUDIO
    TITLE "0:"
    INDEX 01 19:28:33
  TRACK 872 AUDIO
    TITLE "11:cjc171_06936"
    INDEX 01 19:29:34
  TRACK 873 AUDIO
    TITLE "0:"
    INDEX 01 19:30:53
  TRACK 874 AUDIO
    TITLE "12:cjc171_06937"
    INDEX 01 19:31:17
  TRACK 875 AUDIO
    TITLE "0:"
    INDEX 01 19:32:33
  TRACK 876 AUDIO
    TITLE "13:cjc171_06938"
    INDEX 01 19:33:32
  TRACK 877 AUDIO
    TITLE "0:"
    INDEX 01 19:34:67
  TRACK 878 AUDIO
    TITLE "14:cjc171_06939"
    INDEX 01 19:35:31
  TRACK 879 AUDIO
    TITLE "0:"
    INDEX 01 19:37:22
  TRACK 880 AUDIO
    TITLE "15:cjc171_06940"
    INDEX 01 19:37:49
  TRACK 881 AUDIO
    TITLE "0:"
    INDEX 01 19:39:39
  TRACK 882 AUDIO
    TITLE "11:cjc171_06941"
    INDEX 01 19:40:42
  TRACK 883 AUDIO
    TITLE "0:"
    INDEX 01 19:41:45
  TRACK 884 AUDIO
    TITLE "12:cjc171_06942"
    INDEX 01 19:42:09
  TRACK 885 AUDIO
    TITLE "0:"
    INDEX 01 19:45:53
  TRACK 886 AUDIO
    TITLE "13:cjc171_06943"
    INDEX 01 19:46:50
  TRACK 887 AUDIO
    TITLE "0:"
    INDEX 01 19:48:43
  TRACK 888 AUDIO
    TITLE "14:cjc171_06944"
    INDEX 01 19:49:09
  TRACK 889 AUDIO
    TITLE "0:"
    INDEX 01 19:51:03
  TRACK 890 AUDIO
    TITLE "15:cjc171_06945"
    INDEX 01 19:51:32
  TRACK 891 AUDIO
    TITLE "0:"
    INDEX 01 19:53:25
  TRACK 892 AUDIO
    TITLE "11:cjc171_06946"
    INDEX 01 19:54:28
  TRACK 893 AUDIO
    TITLE "0:"
    INDEX 01 19:55:49
  TRACK 894 AUDIO
    TITLE "12:cjc171_06947"
    INDEX 01 19:56:13
  TRACK 895 AUDIO
    TITLE "0:"
    INDEX 01 19:58:57
  TRACK 896 AUDIO
    TITLE "13:cjc171_06948"
    INDEX 01 19:59:57
  TRACK 897 AUDIO
    TITLE "0:"
    INDEX 01 20:01:38
  TRACK 898 AUDIO
    TITLE "14:cjc171_06949"
    INDEX 01 20:02:04
  TRACK 899 AUDIO
    TITLE "0:"
    INDEX 01 20:03:66
  TRACK 900 AUDIO
    TITLE "15:cjc171_06950"
    INDEX 01 20:04:21
  TRACK 901 AUDIO
    TITLE "0:"
    INDEX 01 20:06:10
  TRACK 902 AUDIO
    TITLE "11:cjc171_06951"
    INDEX 01 20:07:11
  TRACK 903 AUDIO
    TITLE "0:"
    INDEX 01 20:08:15
  TRACK 904 AUDIO
    TITLE "12:cjc171_06952"
    INDEX 01 20:08:50
  TRACK 905 AUDIO
    TITLE "0:"
    INDEX 01 20:10:45
  TRACK 906 AUDIO
    TITLE "13:cjc171_06953"
    INDEX 01 20:11:44
  TRACK 907 AUDIO
    TITLE "0:"
    INDEX 01 20:14:37
  TRACK 908 AUDIO
    TITLE "14:cjc171_06954"
    INDEX 01 20:14:70
  TRACK 909 AUDIO
    TITLE "0:"
    INDEX 01 20:17:33
  TRACK 910 AUDIO
    TITLE "15:cjc171_06955"
    INDEX 01 20:17:55
  TRACK 911 AUDIO
    TITLE "0:"
    INDEX 01 20:20:16
  TRACK 912 AUDIO
    TITLE "11:cjc171_06956"
    INDEX 01 20:21:11
  TRACK 913 AUDIO
    TITLE "0:"
    INDEX 01 20:22:07
  TRACK 914 AUDIO
    TITLE "12:cjc171_06957"
    INDEX 01 20:22:44
  TRACK 915 AUDIO
    TITLE "0:"
    INDEX 01 20:24:74
  TRACK 916 AUDIO
    TITLE "13:cjc171_06958"
    INDEX 01 20:25:70
  TRACK 917 AUDIO
    TITLE "0:"
    INDEX 01 20:28:55
  TRACK 918 AUDIO
    TITLE "14:cjc171_06959"
    INDEX 01 20:29:15
  TRACK 919 AUDIO
    TITLE "0:"
    INDEX 01 20:31:29
  TRACK 920 AUDIO
    TITLE "15:cjc171_06960"
    INDEX 01 20:31:49
  TRACK 921 AUDIO
    TITLE "0:"
    INDEX 01 20:33:64
  TRACK 922 AUDIO
    TITLE "11:cjc171_06961"
    INDEX 01 20:34:59
  TRACK 923 AUDIO
    TITLE "0:"
    INDEX 01 20:36:05
  TRACK 924 AUDIO
    TITLE "12:cjc171_06962"
    INDEX 01 20:36:40
  TRACK 925 AUDIO
    TITLE "0:"
    INDEX 01 20:37:73
  TRACK 926 AUDIO
    TITLE "13:cjc171_06963"
    INDEX 01 20:38:75
  TRACK 927 AUDIO
    TITLE "0:"
    INDEX 01 20:40:46
  TRACK 928 AUDIO
    TITLE "14:cjc171_06964"
    INDEX 01 20:41:06
  TRACK 929 AUDIO
    TITLE "0:"
    INDEX 01 20:42:57
  TRACK 930 AUDIO
    TITLE "15:cjc171_06965"
    INDEX 01 20:42:74
  TRACK 931 AUDIO
    TITLE "0:"
    INDEX 01 20:44:50
  TRACK 932 AUDIO
    TITLE "11:cjc171_06966"
    INDEX 01 20:45:41
  TRACK 933 AUDIO
    TITLE "0:"
    INDEX 01 20:46:58
  TRACK 934 AUDIO
    TITLE "12:cjc171_06967"
    INDEX 01 20:47:19
  TRACK 935 AUDIO
    TITLE "0:"
    INDEX 01 20:50:62
  TRACK 936 AUDIO
    TITLE "13:cjc171_06968"
    INDEX 01 20:51:56
  TRACK 937 AUDIO
    TITLE "0:"
    INDEX 01 20:53:64
  TRACK 938 AUDIO
    TITLE "14:cjc171_06969"
    INDEX 01 20:54:25
  TRACK 939 AUDIO
    TITLE "0:"
    INDEX 01 20:56:14
  TRACK 940 AUDIO
    TITLE "15:cjc171_06970"
    INDEX 01 20:56:39
  TRACK 941 AUDIO
    TITLE "0:"
    INDEX 01 20:58:32
  TRACK 942 AUDIO
    TITLE "11:cjc171_06971"
    INDEX 01 20:59:32
  TRACK 943 AUDIO
    TITLE "0:"
    INDEX 01 21:00:64
  TRACK 944 AUDIO
    TITLE "12:cjc171_06972"
    INDEX 01 21:01:27
  TRACK 945 AUDIO
    TITLE "0:"
    INDEX 01 21:04:11
  TRACK 946 AUDIO
    TITLE "13:cjc171_06973"
    INDEX 01 21:05:09
  TRACK 947 AUDIO
    TITLE "0:"
    INDEX 01 21:07:08
  TRACK 948 AUDIO
    TITLE "14:cjc171_06974"
    INDEX 01 21:07:45
  TRACK 949 AUDIO
    TITLE "0:"
    INDEX 01 21:09:67
  TRACK 950 AUDIO
    TITLE "15:cjc171_06975"
    INDEX 01 21:10:20
  TRACK 951 AUDIO
    TITLE "0:"
    INDEX 01 21:12:40
  TRACK 952 AUDIO
    TITLE "11:cjc171_06976"
    INDEX 01 21:13:40
  TRACK 953 AUDIO
    TITLE "0:"
    INDEX 01 21:14:45
  TRACK 954 AUDIO
    TITLE "12:cjc171_06977"
    INDEX 01 21:15:03
  TRACK 955 AUDIO
    TITLE "0:"
    INDEX 01 21:17:06
  TRACK 956 AUDIO
    TITLE "13:cjc171_06978"
    INDEX 01 21:18:13
  TRACK 957 AUDIO
    TITLE "0:"
    INDEX 01 21:19:50
  TRACK 958 AUDIO
    TITLE "14:cjc171_06979"
    INDEX 01 21:20:10
  TRACK 959 AUDIO
    TITLE "0:"
    INDEX 01 21:21:59
  TRACK 960 AUDIO
    TITLE "15:cjc171_06980"
    INDEX 01 21:22:05
  TRACK 961 AUDIO
    TITLE "0:"
    INDEX 01 21:23:56
  TRACK 962 AUDIO
    TITLE "11:cjc171_06981"
    INDEX 01 21:24:53
  TRACK 963 AUDIO
    TITLE "0:"
    INDEX 01 21:25:62
  TRACK 964 AUDIO
    TITLE "12:cjc171_06982"
    INDEX 01 21:26:32
  TRACK 965 AUDIO
    TITLE "0:"
    INDEX 01 21:29:39
  TRACK 966 AUDIO
    TITLE "13:cjc171_06983"
    INDEX 01 21:30:38
  TRACK 967 AUDIO
    TITLE "0:"
    INDEX 01 21:32:19
  TRACK 968 AUDIO
    TITLE "14:cjc171_06984"
    INDEX 01 21:32:53
  TRACK 969 AUDIO
    TITLE "0:"
    INDEX 01 21:35:14
  TRACK 970 AUDIO
    TITLE "15:cjc171_06985"
    INDEX 01 21:35:35
  TRACK 971 AUDIO
    TITLE "0:"
    INDEX 01 21:37:71
  TRACK 972 AUDIO
    TITLE "11:cjc171_06986"
    INDEX 01 21:38:67
  TRACK 973 AUDIO
    TITLE "0:"
    INDEX 01 21:40:01
  TRACK 974 AUDIO
    TITLE "12:cjc171_06987"
    INDEX 01 21:40:37
  TRACK 975 AUDIO
    TITLE "0:"
    INDEX 01 21:42:41
  TRACK 976 AUDIO
    TITLE "13:cjc171_06988"
    INDEX 01 21:43:39
  TRACK 977 AUDIO
    TITLE "0:"
    INDEX 01 21:45:20
  TRACK 978 AUDIO
    TITLE "14:cjc171_06989"
    INDEX 01 21:45:53
  TRACK 979 AUDIO
    TITLE "0:"
    INDEX 01 21:47:35
  TRACK 980 AUDIO
    TITLE "15:cjc171_06990"
    INDEX 01 21:47:54
  TRACK 981 AUDIO
    TITLE "0:"
    INDEX 01 21:49:34
  TRACK 982 AUDIO
    TITLE "11:cjc171_06991"
    INDEX 01 21:50:29
  TRACK 983 AUDIO
    TITLE "0:"
    INDEX 01 21:51:42
  TRACK 984 AUDIO
    TITLE "12:cjc171_06992"
    INDEX 01 21:52:01
  TRACK 985 AUDIO
    TITLE "0:"
    INDEX 01 21:54:25
  TRACK 986 AUDIO
    TITLE "13:cjc171_06993"
    INDEX 01 21:55:26
  TRACK 987 AUDIO
    TITLE "0:"
    INDEX 01 21:56:75
  TRACK 988 AUDIO
    TITLE "14:cjc171_06994"
    INDEX 01 21:57:33
  TRACK 989 AUDIO
    TITLE "0:"
    INDEX 01 21:59:53
  TRACK 990 AUDIO
    TITLE "15:cjc171_06995"
    INDEX 01 21:59:73
  TRACK 991 AUDIO
    TITLE "0:"
    INDEX 01 22:02:19
  TRACK 992 AUDIO
    TITLE "11:cjc171_06996"
    INDEX 01 22:03:14
  TRACK 993 AUDIO
    TITLE "0:"
    INDEX 01 22:04:45
  TRACK 994 AUDIO
    TITLE "12:cjc171_06997"
    INDEX 01 22:05:07
  TRACK 995 AUDIO
    TITLE "0:"
    INDEX 01 22:08:37
  TRACK 996 AUDIO
    TITLE "13:cjc171_06998"
    INDEX 01 22:09:34
  TRACK 997 AUDIO
    TITLE "0:"
    INDEX 01 22:11:10
  TRACK 998 AUDIO
    TITLE "14:cjc171_06999"
    INDEX 01 22:11:49
  TRACK 999 AUDIO
    TITLE "0:"
    INDEX 01 22:13:52
  TRACK 1000 AUDIO
    TITLE "15:cjc171_07000"
    INDEX 01 22:14:14
  TRACK 1001 AUDIO
    TITLE "0:"
    INDEX 01 22:16:23
